<svg width="401" height="206" viewBox="0 0 401 206" fill="none" xmlns="http://www.w3.org/2000/svg">
<path d="M39.7252 194.72C37.7652 194.72 36.0752 194.26 34.6552 193.34C33.2352 192.4 32.1452 191.11 31.3852 189.47C30.6452 187.83 30.2752 185.97 30.2752 183.89C30.2752 181.81 30.6452 179.95 31.3852 178.31C32.1452 176.67 33.2352 175.39 34.6552 174.47C36.0752 173.53 37.7652 173.06 39.7252 173.06C42.0852 173.06 44.0352 173.73 45.5752 175.07C47.1152 176.39 48.1452 178.18 48.6652 180.44H46.1152C45.6952 178.9 44.9252 177.68 43.8052 176.78C42.6852 175.86 41.3352 175.4 39.7552 175.4C37.5752 175.4 35.9052 176.17 34.7452 177.71C33.5852 179.23 33.0052 181.28 33.0052 183.86C33.0052 186.46 33.5852 188.53 34.7452 190.07C35.9052 191.59 37.5752 192.35 39.7552 192.35C41.2552 192.35 42.5452 191.95 43.6252 191.15C44.7052 190.33 45.4752 189.24 45.9352 187.88H48.4852C47.9252 189.96 46.8852 191.62 45.3652 192.86C43.8652 194.1 41.9852 194.72 39.7252 194.72ZM60.2105 194.72C58.2105 194.72 56.4905 194.26 55.0505 193.34C53.6305 192.42 52.5505 191.14 51.8105 189.5C51.0705 187.86 50.7005 186 50.7005 183.92C50.7005 181.84 51.0705 179.98 51.8105 178.34C52.5705 176.68 53.6605 175.39 55.0805 174.47C56.5205 173.53 58.2305 173.06 60.2105 173.06C62.1705 173.06 63.8605 173.53 65.2805 174.47C66.7005 175.39 67.7805 176.67 68.5205 178.31C69.2605 179.95 69.6305 181.83 69.6305 183.95C69.6305 186.05 69.2605 187.91 68.5205 189.53C67.7805 191.15 66.7005 192.42 65.2805 193.34C63.8605 194.26 62.1705 194.72 60.2105 194.72ZM60.1805 192.32C61.5605 192.32 62.7605 191.97 63.7805 191.27C64.8005 190.55 65.5805 189.55 66.1205 188.27C66.6605 186.99 66.9305 185.53 66.9305 183.89C66.9305 182.25 66.6605 180.79 66.1205 179.51C65.5805 178.23 64.8005 177.23 63.7805 176.51C62.7605 175.79 61.5605 175.43 60.1805 175.43C58.8005 175.43 57.6005 175.8 56.5805 176.54C55.5605 177.26 54.7805 178.26 54.2405 179.54C53.7005 180.82 53.4305 182.27 53.4305 183.89C53.4305 185.53 53.7005 186.99 54.2405 188.27C54.7805 189.53 55.5605 190.52 56.5805 191.24C57.6005 191.96 58.8005 192.32 60.1805 192.32ZM78.9111 186.14H75.1611V194.51H72.5811V173.51H79.7211C81.4211 173.51 82.8111 173.82 83.8911 174.44C84.9911 175.06 85.7811 175.85 86.2611 176.81C86.7411 177.77 86.9811 178.78 86.9811 179.84C86.9811 181.3 86.5411 182.61 85.6611 183.77C84.8011 184.93 83.4511 185.67 81.6111 185.99L87.1611 194.51H84.3111L78.9111 186.14ZM75.1611 183.92H79.3911C80.8111 183.92 82.0111 183.61 82.9911 182.99C83.9711 182.37 84.4611 181.32 84.4611 179.84C84.4611 178.38 83.9711 177.35 82.9911 176.75C82.0111 176.15 80.8111 175.85 79.3911 175.85H75.1611V183.92ZM96.6732 186.14H92.9232V194.51H90.3432V173.51H97.4832C99.1832 173.51 100.573 173.82 101.653 174.44C102.753 175.06 103.543 175.85 104.023 176.81C104.503 177.77 104.743 178.78 104.743 179.84C104.743 181.3 104.303 182.61 103.423 183.77C102.563 184.93 101.213 185.67 99.3732 185.99L104.923 194.51H102.073L96.6732 186.14ZM92.9232 183.92H97.1532C98.5732 183.92 99.7732 183.61 100.753 182.99C101.733 182.37 102.223 181.32 102.223 179.84C102.223 178.38 101.733 177.35 100.753 176.75C99.7732 176.15 98.5732 175.85 97.1532 175.85H92.9232V183.92ZM110.715 175.85V182.75H119.805V184.85H110.715V192.17H121.035V194.51H108.105V173.51H121.035V175.85H110.715ZM138.325 175.85H132.145V194.51H129.565V175.85H123.385V173.51H138.325V175.85ZM149.021 194.72C147.021 194.72 145.301 194.26 143.861 193.34C142.441 192.42 141.361 191.14 140.621 189.5C139.881 187.86 139.511 186 139.511 183.92C139.511 181.84 139.881 179.98 140.621 178.34C141.381 176.68 142.471 175.39 143.891 174.47C145.331 173.53 147.041 173.06 149.021 173.06C150.981 173.06 152.671 173.53 154.091 174.47C155.511 175.39 156.591 176.67 157.331 178.31C158.071 179.95 158.441 181.83 158.441 183.95C158.441 186.05 158.071 187.91 157.331 189.53C156.591 191.15 155.511 192.42 154.091 193.34C152.671 194.26 150.981 194.72 149.021 194.72ZM148.991 192.32C150.371 192.32 151.571 191.97 152.591 191.27C153.611 190.55 154.391 189.55 154.931 188.27C155.471 186.99 155.741 185.53 155.741 183.89C155.741 182.25 155.471 180.79 154.931 179.51C154.391 178.23 153.611 177.23 152.591 176.51C151.571 175.79 150.371 175.43 148.991 175.43C147.611 175.43 146.411 175.8 145.391 176.54C144.371 177.26 143.591 178.26 143.051 179.54C142.511 180.82 142.241 182.27 142.241 183.89C142.241 185.53 142.511 186.99 143.051 188.27C143.591 189.53 144.371 190.52 145.391 191.24C146.411 191.96 147.611 192.32 148.991 192.32ZM167.722 186.14H163.972V194.51H161.392V173.51H168.532C170.232 173.51 171.622 173.82 172.702 174.44C173.802 175.06 174.592 175.85 175.072 176.81C175.552 177.77 175.792 178.78 175.792 179.84C175.792 181.3 175.352 182.61 174.472 183.77C173.612 184.93 172.262 185.67 170.422 185.99L175.972 194.51H173.122L167.722 186.14ZM163.972 183.92H168.202C169.622 183.92 170.822 183.61 171.802 182.99C172.782 182.37 173.272 181.32 173.272 179.84C173.272 178.38 172.782 177.35 171.802 176.75C170.822 176.15 169.622 175.85 168.202 175.85H163.972V183.92ZM189.489 188.39H180.939L178.719 194.51H176.079L183.969 173.51H186.429L194.379 194.51H191.739L189.489 188.39ZM188.739 186.32L185.229 176.81H185.109L181.689 186.32H188.739ZM202.754 173.51H210.434C212.314 173.51 213.954 173.94 215.354 174.8C216.774 175.64 217.864 176.85 218.624 178.43C219.404 179.99 219.794 181.84 219.794 183.98C219.794 186.12 219.404 187.99 218.624 189.59C217.864 191.17 216.774 192.39 215.354 193.25C213.934 194.09 212.284 194.51 210.404 194.51H202.754V173.51ZM210.044 192.11C212.164 192.11 213.864 191.42 215.144 190.04C216.424 188.64 217.064 186.62 217.064 183.98C217.064 181.34 216.424 179.33 215.144 177.95C213.884 176.55 212.184 175.85 210.044 175.85H205.274V192.11H210.044ZM225.06 175.85V182.75H234.15V184.85H225.06V192.17H235.38V194.51H222.45V173.51H235.38V175.85H225.06ZM251.574 194.75C249.954 194.75 248.564 194.42 247.404 193.76C246.264 193.08 245.404 192.21 244.824 191.15C244.244 190.09 243.954 188.98 243.954 187.82V187.67H246.804V187.82C246.804 188.52 246.964 189.22 247.284 189.92C247.624 190.62 248.154 191.21 248.874 191.69C249.594 192.15 250.514 192.38 251.634 192.38C252.954 192.38 254.044 192.04 254.904 191.36C255.764 190.68 256.194 189.76 256.194 188.6C256.194 187.64 255.874 186.88 255.234 186.32C254.614 185.74 253.814 185.35 252.834 185.15L249.774 184.58C246.254 183.8 244.494 181.95 244.494 179.03C244.494 177.83 244.784 176.78 245.364 175.88C245.944 174.98 246.744 174.29 247.764 173.81C248.804 173.31 250.004 173.06 251.364 173.06C252.904 173.06 254.224 173.37 255.324 173.99C256.424 174.61 257.254 175.42 257.814 176.42C258.374 177.4 258.654 178.42 258.654 179.48V179.6H255.804V179.51C255.804 178.91 255.654 178.3 255.354 177.68C255.074 177.04 254.594 176.49 253.914 176.03C253.254 175.57 252.374 175.34 251.274 175.34C250.014 175.34 249.004 175.69 248.244 176.39C247.504 177.09 247.134 177.96 247.134 179C247.134 179.88 247.424 180.6 248.004 181.16C248.584 181.72 249.374 182.1 250.374 182.3L253.134 182.84C256.994 183.62 258.924 185.51 258.924 188.51C258.924 189.73 258.614 190.81 257.994 191.75C257.394 192.69 256.534 193.43 255.414 193.97C254.294 194.49 253.014 194.75 251.574 194.75ZM264.401 175.85V182.75H273.491V184.85H264.401V192.17H274.721V194.51H261.791V173.51H274.721V175.85H264.401ZM286.431 194.72C284.371 194.72 282.661 194.2 281.301 193.16C279.941 192.1 278.931 190.75 278.271 189.11C277.631 187.47 277.311 185.74 277.311 183.92C277.311 182.08 277.641 180.34 278.301 178.7C278.961 177.04 279.991 175.69 281.391 174.65C282.791 173.59 284.541 173.06 286.641 173.06C288.981 173.06 290.871 173.7 292.311 174.98C293.771 176.24 294.781 177.83 295.341 179.75H292.611C292.211 178.39 291.511 177.33 290.511 176.57C289.511 175.81 288.221 175.43 286.641 175.43C284.541 175.43 282.901 176.19 281.721 177.71C280.541 179.23 279.951 181.31 279.951 183.95C279.951 186.63 280.551 188.73 281.751 190.25C282.971 191.77 284.641 192.53 286.761 192.53C288.021 192.53 289.101 192.27 290.001 191.75C290.921 191.21 291.621 190.48 292.101 189.56C292.601 188.64 292.861 187.6 292.881 186.44L292.911 185.6H287.031V183.65H295.341V194.51H293.271V191.03H293.031C292.911 191.33 292.641 191.76 292.221 192.32C291.801 192.86 291.101 193.4 290.121 193.94C289.161 194.46 287.931 194.72 286.431 194.72ZM306.586 194.78C303.906 194.78 301.846 193.96 300.406 192.32C298.966 190.66 298.246 188.31 298.246 185.27V173.51H300.796V185.18C300.796 186.94 301.176 188.57 301.936 190.07C302.716 191.55 304.266 192.29 306.586 192.29C308.866 192.29 310.386 191.55 311.146 190.07C311.906 188.59 312.286 186.96 312.286 185.18V173.51H314.836V185.27C314.836 188.31 314.116 190.66 312.676 192.32C311.256 193.96 309.226 194.78 306.586 194.78ZM324.571 186.14H320.821V194.51H318.241V173.51H325.381C327.081 173.51 328.471 173.82 329.551 174.44C330.651 175.06 331.441 175.85 331.921 176.81C332.401 177.77 332.641 178.78 332.641 179.84C332.641 181.3 332.201 182.61 331.321 183.77C330.461 184.93 329.111 185.67 327.271 185.99L332.821 194.51H329.971L324.571 186.14ZM320.821 183.92H325.051C326.471 183.92 327.671 183.61 328.651 182.99C329.631 182.37 330.121 181.32 330.121 179.84C330.121 178.38 329.631 177.35 328.651 176.75C327.671 176.15 326.471 175.85 325.051 175.85H320.821V183.92ZM344.295 194.72C342.295 194.72 340.575 194.26 339.135 193.34C337.715 192.42 336.635 191.14 335.895 189.5C335.155 187.86 334.785 186 334.785 183.92C334.785 181.84 335.155 179.98 335.895 178.34C336.655 176.68 337.745 175.39 339.165 174.47C340.605 173.53 342.315 173.06 344.295 173.06C346.255 173.06 347.945 173.53 349.365 174.47C350.785 175.39 351.865 176.67 352.605 178.31C353.345 179.95 353.715 181.83 353.715 183.95C353.715 186.05 353.345 187.91 352.605 189.53C351.865 191.15 350.785 192.42 349.365 193.34C347.945 194.26 346.255 194.72 344.295 194.72ZM344.265 192.32C345.645 192.32 346.845 191.97 347.865 191.27C348.885 190.55 349.665 189.55 350.205 188.27C350.745 186.99 351.015 185.53 351.015 183.89C351.015 182.25 350.745 180.79 350.205 179.51C349.665 178.23 348.885 177.23 347.865 176.51C346.845 175.79 345.645 175.43 344.265 175.43C342.885 175.43 341.685 175.8 340.665 176.54C339.645 177.26 338.865 178.26 338.325 179.54C337.785 180.82 337.515 182.27 337.515 183.89C337.515 185.53 337.785 186.99 338.325 188.27C338.865 189.53 339.645 190.52 340.665 191.24C341.685 191.96 342.885 192.32 344.265 192.32ZM363.596 194.75C361.976 194.75 360.586 194.42 359.426 193.76C358.286 193.08 357.426 192.21 356.846 191.15C356.266 190.09 355.976 188.98 355.976 187.82V187.67H358.826V187.82C358.826 188.52 358.986 189.22 359.306 189.92C359.646 190.62 360.176 191.21 360.896 191.69C361.616 192.15 362.536 192.38 363.656 192.38C364.976 192.38 366.066 192.04 366.926 191.36C367.786 190.68 368.216 189.76 368.216 188.6C368.216 187.64 367.896 186.88 367.256 186.32C366.636 185.74 365.836 185.35 364.856 185.15L361.796 184.58C358.276 183.8 356.516 181.95 356.516 179.03C356.516 177.83 356.806 176.78 357.386 175.88C357.966 174.98 358.766 174.29 359.786 173.81C360.826 173.31 362.026 173.06 363.386 173.06C364.926 173.06 366.246 173.37 367.346 173.99C368.446 174.61 369.276 175.42 369.836 176.42C370.396 177.4 370.676 178.42 370.676 179.48V179.6H367.826V179.51C367.826 178.91 367.676 178.3 367.376 177.68C367.096 177.04 366.616 176.49 365.936 176.03C365.276 175.57 364.396 175.34 363.296 175.34C362.036 175.34 361.026 175.69 360.266 176.39C359.526 177.09 359.156 177.96 359.156 179C359.156 179.88 359.446 180.6 360.026 181.16C360.606 181.72 361.396 182.1 362.396 182.3L365.156 182.84C369.016 183.62 370.946 185.51 370.946 188.51C370.946 189.73 370.636 190.81 370.016 191.75C369.416 192.69 368.556 193.43 367.436 193.97C366.316 194.49 365.036 194.75 363.596 194.75Z" fill="#D9D9D9"/>
<rect x="371.381" y="2.85693" width="29.6193" height="149.236" fill="#D9D9D9"/>
<rect x="287.08" y="2.85693" width="29.6193" height="149.236" fill="#D9D9D9"/>
<path d="M214.171 2.68442L240.372 2.68442L231.039 152.365L200.038 152.104L214.171 2.68442Z" fill="#D9D9D9"/>
<path d="M265.435 2.68444L239.233 2.68444L247.78 152.62L279.548 152.28L265.435 2.68444Z" fill="#D9D9D9"/>
<rect x="305.307" y="124.752" width="29.6193" height="27.3409" fill="#D9D9D9"/>
<path d="M326.932 124.794C329.86 125.045 330.764 124.495 331.509 121.904L336.581 129.374L331.918 132.422L326.932 124.794Z" fill="#D9D9D9"/>
<rect x="308.725" y="2.85693" width="29.6193" height="27.3409" rx="5" fill="#D9D9D9"/>
<path d="M226.702 2.68433H256.321V22.7468C256.321 25.5083 254.082 27.7468 251.321 27.7468H231.702C228.94 27.7468 226.702 25.5083 226.702 22.7468V2.68433Z" fill="#D9D9D9"/>
<rect x="224.423" y="104.246" width="29.6193" height="22.7841" rx="5" fill="#D9D9D9"/>
<path d="M331.508 2.85693H333.128C348.592 2.85693 361.128 15.393 361.128 30.8569V124.093C361.128 139.557 348.592 152.093 333.128 152.093H331.508V2.85693Z" fill="#D9D9D9"/>
<rect x="80.8833" y="2.85693" width="29.6193" height="149.236" fill="#D9D9D9"/>
<path d="M120.756 30.8569C120.756 15.393 133.292 2.85693 148.756 2.85693H150.375V152.093H148.756C133.292 152.093 120.756 139.557 120.756 124.093V30.8569Z" fill="#D9D9D9"/>
<path d="M164.045 88.2974H193.665V124.093C193.665 139.557 181.129 152.093 165.665 152.093H164.045V88.2974Z" fill="#D9D9D9"/>
<path d="M164.045 62.0955H193.665V30.8568C193.665 15.3928 181.129 2.85682 165.665 2.85682H164.045V62.0955Z" fill="#D9D9D9"/>
<path d="M150.375 123.613C152.653 126.461 160.058 127.6 164.045 123.613L165.185 152.093H149.236L150.375 123.613Z" fill="#D9D9D9"/>
<path d="M164.045 31.3372C161.767 28.4891 154.362 27.3499 150.375 31.3372L149.236 2.85704L165.185 2.85704L164.045 31.3372Z" fill="#D9D9D9"/>
<rect y="2.85693" width="29.6193" height="149.236" fill="#D9D9D9"/>
<path d="M41.0112 74.6267H56.6305C64.3625 74.6267 70.6305 80.8947 70.6305 88.6267V153.232H41.0112V74.6267Z" fill="#D9D9D9"/>
<path d="M28.48 59.8171H58.0993V84.8796H28.48V59.8171Z" fill="#D9D9D9"/>
<path d="M27.3408 2.85693H56.9601V29.0586H27.3408V2.85693Z" fill="#D9D9D9"/>
<path d="M43.29 2.85693H57.7701C65.5021 2.85693 71.7702 9.12495 71.7702 16.8569V60.6268C71.7702 68.3588 65.5021 74.6268 57.7701 74.6268H43.29V2.85693Z" fill="#D9D9D9"/>
<path d="M41.0111 89.6766C41.0111 87.7277 37.5935 84.8797 35.3151 84.8797L41.7465 78.2271L46.679 82.9589L41.0111 89.6766Z" fill="#D9D9D9"/>
<path d="M37.5938 59.8171C39.5164 59.498 43.6628 55.2296 43.2898 52.9819L50.5459 59.3765L46.6855 65.0172L37.5938 59.8171Z" fill="#D9D9D9"/>
<path d="M43.2899 34.7547C43.3968 32.8087 39.8688 29.1837 37.5939 29.0586L44.8891 23.085L49.5545 28.0805L43.2899 34.7547Z" fill="#D9D9D9"/>
<path d="M331.508 33.6155C331.068 30.7097 329.645 30.3168 326.952 30.1979L334.342 23.3627L338.396 27.1842L331.508 33.6155Z" fill="#D9D9D9"/>
</svg>
